<?xml version="1.0" standalone="no"?>
<!DOCTYPE svg PUBLIC "-//W3C//DTD SVG 20010904//EN"
 "http://www.w3.org/TR/2001/REC-SVG-20010904/DTD/svg10.dtd">
<svg version="1.0" xmlns="http://www.w3.org/2000/svg"
 width="2300.000000pt" height="2479.000000pt" viewBox="0 0 2300.000000 2479.000000"
 preserveAspectRatio="xMidYMid meet">

<g transform="translate(0.000000,2479.000000) scale(0.100000,-0.100000)"
fill="#FF748C" stroke="none">
<path d="M15975 22820 c-200 -15 -469 -70 -653 -134 -53 -19 -129 -44 -169
-55 -169 -50 -798 -392 -1003 -546 -279 -209 -409 -310 -540 -419 -223 -187
-720 -689 -940 -951 -139 -166 -221 -249 -235 -239 -200 149 -411 253 -670
332 -158 48 -712 189 -800 204 -124 20 -647 17 -855 -6 -384 -41 -908 -182
-1365 -366 -160 -64 -542 -251 -572 -279 -12 -12 -25 -21 -29 -21 -13 0 -229
-123 -276 -157 -27 -19 -48 -41 -48 -48 0 -7 -7 -15 -15 -19 -32 -12 -193
-125 -269 -189 -28 -23 -80 -64 -116 -89 -86 -61 -200 -163 -223 -199 -11 -16
-27 -29 -36 -29 -14 0 -90 -73 -139 -133 -4 -5 -41 -41 -82 -80 -85 -81 -236
-254 -295 -337 -92 -131 -228 -333 -290 -435 -91 -147 -269 -515 -311 -641
-36 -111 -74 -292 -99 -478 -16 -116 -36 -397 -28 -405 9 -12 192 -12 278 -2
97 13 242 17 252 8 14 -14 33 -219 33 -357 0 -187 -16 -452 -33 -535 -12 -59
-13 -60 -52 -67 -22 -5 -114 -11 -205 -14 -199 -8 -280 3 -385 51 -130 59
-185 66 -185 24 0 -25 109 -105 220 -163 121 -62 419 -133 526 -124 50 4 52
-9 20 -125 -58 -205 -217 -464 -425 -692 -120 -131 -124 -147 -45 -166 35 -8
294 -14 325 -7 7 2 19 -15 27 -37 17 -50 34 -363 20 -388 -5 -10 -33 -34 -63
-52 -76 -49 -105 -90 -105 -150 0 -41 4 -52 35 -80 21 -21 53 -37 85 -45 27
-7 50 -14 50 -17 0 -3 -16 -23 -35 -44 -43 -48 -46 -93 -10 -155 30 -51 63
-75 133 -99 63 -20 67 -28 83 -158 15 -130 36 -222 55 -253 10 -14 43 -43 75
-65 84 -57 180 -67 424 -45 108 9 285 16 445 16 250 0 708 13 885 25 205 14
986 24 1098 14 179 -15 322 -57 442 -130 51 -31 55 -37 75 -100 16 -54 20 -95
20 -206 0 -269 -54 -561 -170 -918 -22 -67 -40 -130 -40 -141 0 -10 -12 -55
-26 -99 -14 -44 -37 -116 -51 -160 -64 -199 -137 -327 -507 -889 -273 -413
-516 -684 -1011 -1126 -82 -74 -204 -184 -270 -245 -66 -61 -140 -126 -165
-145 -25 -19 -175 -139 -335 -265 -159 -127 -327 -259 -372 -293 -86 -65 -97
-85 -63 -114 23 -21 97 -31 425 -58 300 -25 409 -38 462 -55 25 -9 92 -15 170
-16 912 -12 1365 23 1998 157 775 164 1547 463 2186 847 166 99 389 252 389
267 0 3 -27 26 -61 50 -33 25 -66 50 -72 55 -7 6 -37 30 -67 55 -104 84 -265
225 -385 335 -66 60 -137 126 -158 145 -63 57 -244 257 -306 339 -32 42 -73
103 -92 136 -18 33 -36 62 -39 65 -9 9 -77 144 -85 170 -4 14 -36 93 -71 176
-35 82 -80 199 -100 260 -20 60 -41 118 -46 128 -19 35 -87 329 -98 421 -6 50
-18 124 -26 165 -40 194 40 801 148 1124 118 353 332 682 742 1141 39 43 145
160 236 260 289 317 309 341 489 610 155 231 279 440 406 685 62 118 128 244
148 280 20 36 37 73 37 82 0 10 29 89 64 175 150 370 204 572 265 1008 35 248
42 658 16 895 -45 398 -135 719 -291 1035 -67 138 -194 347 -265 436 -16 20
-29 39 -29 42 0 10 201 83 850 308 129 44 323 114 430 154 312 118 930 293
1195 340 128 22 196 28 310 28 250 -1 385 -58 459 -193 l28 -51 -12 -102 c-6
-56 -23 -149 -36 -207 -30 -124 -84 -238 -410 -865 -328 -633 -477 -946 -614
-1290 -173 -434 -251 -733 -320 -1225 -56 -394 15 -1149 150 -1617 65 -223
164 -454 222 -519 20 -22 47 -62 61 -89 95 -190 460 -565 737 -758 178 -124
416 -242 652 -322 278 -95 516 -139 843 -156 452 -22 864 29 1167 146 409 158
851 531 1215 1025 322 437 447 754 564 1440 65 382 45 719 -60 990 -88 228
-181 372 -326 504 -165 152 -244 186 -430 186 -187 0 -298 -29 -497 -132 -361
-185 -667 -477 -1093 -1043 -102 -135 -285 -408 -372 -555 -168 -281 -473
-861 -473 -897 0 -23 18 -33 59 -33 28 0 274 133 605 328 100 58 210 122 246
142 36 20 109 62 164 93 114 66 188 84 277 67 79 -15 131 -44 203 -113 73 -71
86 -109 86 -247 0 -67 -6 -96 -39 -187 -171 -477 -383 -730 -662 -787 -445
-91 -920 -4 -1278 236 -276 185 -666 581 -859 873 -122 185 -181 324 -212 506
-27 155 45 508 143 704 90 180 284 488 420 665 124 162 176 220 383 430 105
107 249 263 319 345 69 83 148 175 174 205 166 193 667 831 751 955 18 28 124
172 236 321 322 431 403 560 530 839 138 306 178 429 190 595 11 147 -40 349
-139 545 -89 178 -136 243 -259 352 -206 182 -314 261 -539 395 -480 288 -948
447 -1459 498 -150 15 -436 20 -565 10z"/>
<path d="M6565 7034 c-857 -116 -2010 -744 -2895 -1578 -145 -137 -389 -407
-491 -546 -254 -343 -425 -697 -475 -980 -20 -116 -14 -342 11 -434 60 -215
220 -380 453 -467 75 -28 103 -33 207 -37 190 -7 313 34 416 138 112 114 101
244 -26 309 -41 21 -63 26 -125 25 -66 0 -90 -6 -195 -49 -234 -93 -353 -69
-411 86 -25 66 -23 204 5 304 121 440 697 1082 1526 1701 817 611 1923 1078
2406 1015 152 -20 259 -84 295 -177 118 -309 -500 -1129 -1189 -1578 -173
-112 -381 -225 -393 -213 -18 17 137 496 219 679 31 68 60 141 66 163 42 153
-36 297 -194 357 -200 77 -285 75 -353 -8 -136 -164 -331 -749 -464 -1383
l-13 -63 -138 -29 c-311 -63 -397 -113 -397 -231 0 -27 6 -63 14 -81 18 -43
86 -111 135 -137 56 -28 154 -50 227 -50 33 0 63 -2 65 -5 3 -2 -5 -78 -17
-167 -29 -203 -98 -823 -119 -1063 -9 -99 -18 -191 -21 -204 l-5 -24 -117 6
c-116 6 -147 12 -396 81 -105 29 -148 36 -225 37 -107 1 -135 -7 -171 -46 -21
-23 -25 -36 -25 -93 0 -90 37 -163 130 -258 82 -84 180 -136 290 -155 78 -13
237 -7 380 15 50 7 93 12 96 10 3 -2 0 -38 -8 -81 -20 -122 -28 -370 -13 -432
24 -102 99 -156 216 -155 56 0 81 5 125 27 81 40 164 110 219 185 64 87 70
122 36 221 -23 66 -26 90 -26 216 l0 142 103 28 c134 37 442 141 587 198 557
220 1026 496 1367 804 l81 74 -30 -98 c-69 -227 -118 -491 -118 -633 0 -261
189 -392 413 -285 176 83 559 498 824 893 47 70 86 128 87 129 2 2 0 -59 -2
-135 -8 -255 53 -397 203 -472 45 -22 62 -25 165 -25 98 0 122 3 164 23 107
49 196 155 196 233 0 51 -17 61 -87 54 -54 -7 -61 -5 -91 20 -64 54 -76 170
-43 425 39 293 114 566 190 690 80 129 60 248 -50 305 -159 82 -281 84 -362 7
-15 -15 -73 -114 -129 -222 -265 -512 -446 -817 -626 -1059 -90 -121 -228
-271 -250 -271 -36 0 -25 79 39 272 151 453 350 862 633 1298 114 176 183 246
266 270 46 13 75 -3 106 -57 56 -99 95 -123 196 -123 144 1 272 118 273 250 0
121 -136 311 -270 376 -52 25 -71 28 -150 28 -289 1 -634 -248 -942 -679 -65
-91 -183 -284 -219 -357 -30 -62 -44 -73 -44 -33 0 36 -43 147 -81 211 -43 70
-130 160 -206 212 -167 113 -354 172 -631 198 -112 10 -112 12 58 153 154 128
365 334 460 452 212 260 361 553 417 819 27 127 24 386 -5 495 -67 246 -221
414 -457 498 -158 56 -436 73 -670 41z m80 -3058 c265 -44 401 -105 453 -206
51 -98 11 -244 -104 -383 -189 -228 -812 -613 -1324 -819 -134 -54 -410 -148
-435 -148 -19 0 -19 7 5 175 57 388 138 794 239 1195 l36 145 115 17 c234 36
407 47 665 43 168 -2 283 -8 350 -19z"/>
<path d="M11850 6903 c-19 -10 -41 -30 -49 -45 -15 -25 -13 -29 22 -81 32 -47
37 -61 37 -113 0 -167 -204 -1089 -396 -1789 -128 -465 -547 -1783 -569 -1786
-5 -1 -18 10 -30 25 -18 25 -20 42 -20 215 0 183 -1 188 -25 224 -49 73 -126
84 -215 32 -59 -34 -100 -91 -125 -174 -77 -246 10 -504 213 -637 40 -26 73
-48 75 -49 1 -1 -11 -31 -28 -66 -20 -43 -30 -80 -30 -111 0 -42 4 -50 45 -86
57 -50 124 -82 171 -82 72 0 192 101 230 194 l18 43 121 6 c598 31 1120 416
1435 1062 97 198 130 326 130 503 0 156 -32 239 -121 315 -76 66 -133 81 -299
81 -109 0 -163 -4 -215 -18 -146 -38 -315 -121 -438 -213 -33 -24 -61 -42 -64
-39 -10 9 152 439 271 718 181 428 365 950 417 1188 34 151 33 340 0 425 -60
151 -236 260 -436 271 -74 5 -96 2 -125 -13z m410 -2688 c63 -32 81 -121 50
-240 -46 -178 -187 -408 -360 -589 -165 -171 -290 -259 -455 -321 -75 -29
-205 -57 -205 -45 0 4 34 110 75 236 95 293 136 364 387 656 151 177 253 259
373 300 62 22 98 22 135 3z"/>
<path d="M14110 6131 c-142 -45 -257 -136 -312 -248 -27 -56 -30 -69 -27 -141
3 -65 9 -85 32 -120 32 -50 87 -80 169 -93 84 -14 166 3 262 54 167 89 257
209 264 352 6 111 -32 172 -127 204 -52 17 -197 13 -261 -8z"/>
<path d="M9678 5438 c-58 -15 -88 -49 -88 -98 0 -37 6 -47 54 -94 80 -77 90
-119 83 -351 -3 -104 -14 -233 -26 -305 -11 -69 -88 -532 -171 -1030 -156
-940 -165 -1014 -135 -1101 32 -90 98 -139 188 -139 77 0 131 26 214 103 111
104 139 197 103 337 -20 76 -22 101 -16 240 11 287 52 578 118 850 33 135 45
164 114 270 128 198 451 566 557 635 61 39 54 -9 -39 -304 -96 -303 -114 -365
-120 -418 -6 -46 -4 -54 19 -77 36 -36 94 -36 136 0 17 14 31 30 31 36 0 29
149 234 308 423 104 123 155 198 196 284 28 59 31 75 30 156 -1 71 -5 100 -23
137 -26 56 -86 110 -140 126 -146 44 -452 -38 -747 -201 l-79 -44 -6 151 c-5
134 -8 157 -31 208 -47 103 -159 183 -287 208 -66 12 -193 11 -243 -2z"/>
<path d="M15427 5279 c-241 -31 -551 -222 -849 -525 -239 -241 -405 -492 -479
-722 -22 -70 -24 -72 -56 -72 -90 0 -173 -98 -173 -204 0 -61 12 -88 64 -144
l43 -47 6 -130 c6 -148 22 -217 76 -330 101 -212 251 -331 499 -396 56 -15
122 -22 244 -26 197 -7 280 5 513 73 332 96 603 230 875 433 112 84 366 326
446 425 252 314 487 691 526 844 9 38 13 42 43 42 43 0 67 29 73 89 13 134
-143 271 -308 271 -103 0 -127 -51 -67 -144 50 -78 46 -123 -25 -266 -222
-452 -663 -866 -1203 -1130 -334 -163 -683 -236 -943 -196 -119 18 -192 47
-227 88 -39 46 -33 63 25 76 269 62 612 289 880 583 52 57 98 106 101 109 16
14 137 173 179 235 335 497 289 1009 -97 1065 -76 11 -72 11 -166 -1z m-54
-574 c-3 -42 -63 -154 -141 -265 -77 -109 -291 -328 -404 -413 -97 -73 -235
-157 -260 -157 -59 0 30 200 174 390 209 277 471 487 598 478 32 -3 35 -5 33
-33z"/>
<path d="M13733 5230 c-84 -18 -132 -58 -191 -161 l-31 -54 -208 -103 c-214
-105 -227 -109 -323 -96 -58 7 -89 -15 -99 -72 -24 -128 82 -252 235 -276 101
-15 97 -13 80 -50 -140 -314 -179 -422 -235 -644 -95 -378 -97 -715 -5 -884
90 -165 268 -229 459 -165 102 34 189 90 265 171 84 90 90 130 29 198 -54 62
-118 69 -224 25 -99 -41 -165 -1 -165 101 0 88 75 352 162 570 75 188 218 466
497 965 89 159 110 250 77 328 -42 103 -198 173 -323 147z"/>
<path d="M16320 3021 c0 -16 8 -20 43 -23 l42 -3 3 -112 c2 -105 4 -113 22
-113 19 0 20 7 20 115 l0 115 45 0 c38 0 45 3 45 20 0 19 -7 20 -110 20 -102
0 -110 -1 -110 -19z"/>
<path d="M16580 2907 c0 -107 3 -136 14 -140 8 -3 17 -3 20 0 3 4 6 52 7 107
l0 101 37 -102 c31 -88 40 -103 58 -103 19 0 27 14 53 87 48 130 50 131 51 16
0 -96 1 -103 20 -103 19 0 20 7 20 135 l0 135 -33 0 c-34 0 -34 0 -67 -97 -18
-54 -36 -102 -40 -106 -4 -4 -23 38 -42 95 -34 100 -36 103 -66 106 l-32 3 0
-134z"/>
</g>
</svg>
